<svg xmlns="http://www.w3.org/2000/svg" viewBox="121 117 132.354 132.526"><defs><style>.a{fill:#625772;}</style></defs><path class="a" d="M34.655-70.686l-.1,16.238-1.537.1a3.649,3.649,0,0,1-2.017-.288c-.384-.32-.448-2.877-.448-15.982,0-17.74.32-16.046-2.881-15.055l-1.761.575-.16,15.311-.16,15.343-1.7.1a4.056,4.056,0,0,1-2.177-.288c-.384-.32-.448-2.621-.448-13.9,0-12.466-.032-13.553-.544-13.553a18.365,18.365,0,0,0-3.65,3.133c-2.753,2.781-3.3,3.548-4.706,6.489-2.689,5.5-2.721,5.626-2.849,18.252L9.362-43.1H30.845c11.814,0,21.483-.128,21.483-.256,0-.416,3.81-3.42,6.115-4.795a35.629,35.629,0,0,1,9.445-3.932,34.885,34.885,0,0,1,15.208.1,36.955,36.955,0,0,1,13.959,7.192L99.039-43.1h42.677l-.128-11.284c-.128-10.516-.192-11.411-.864-13.649-1.345-4.539-2.977-7.16-6.883-11.06-3.906-3.868-6.5-5.5-11.078-6.9l-2.4-.735-38.323-.1-38.355-.1-.064,16.238-.1,16.238-1.537.1a3.649,3.649,0,0,1-2.017-.288c-.384-.32-.448-2.909-.448-16.3v-15.95h-4.8Zm91.95-3.9a4.533,4.533,0,0,1,1.6,1.758c.576,1.151.64,1.886.64,8.854,0,11,.352,10.644-10.533,10.644-8.26,0-9.253-.224-10.309-2.3-.608-1.183-.64-1.758-.544-9.238l.1-8.023,1.185-1.087,1.217-1.087H117.8C124.236-75.065,125.836-74.969,126.6-74.585Z" transform="translate(111.638 203.924)"/><path class="a" d="M55.265-62.862A26.476,26.476,0,0,0,33.014-40.934a32.022,32.022,0,0,0,.64,11.731c1.249,4.379,2.945,7.128,6.723,10.868,3.746,3.772,6.179,5.338,9.989,6.553,14.983,4.731,30.351-3.58,34.225-18.54a32.92,32.92,0,0,0,.16-12.626c-1.409-5.466-3.138-8.439-7.4-12.626a23.039,23.039,0,0,0-13.223-7.064A35.793,35.793,0,0,0,55.265-62.862Zm7.043,7.927c2.5.511,7.492,2.877,8.964,4.251a21.606,21.606,0,0,1,5.795,9.526,19.247,19.247,0,0,1-.16,9.717,18.961,18.961,0,0,1-17.641,13.2,17.744,17.744,0,0,1-8.324-2.11A18.374,18.374,0,0,1,40.6-36.874,18.617,18.617,0,0,1,55.457-54.9,13.451,13.451,0,0,1,62.308-54.935Z" transform="translate(128.07 220.713)"/><path class="a" d="M9.477-27.125,9.573,5.1l.736,2.4c1.409,4.571,3.042,7.16,6.915,11.06,3.97,3.932,6.627,5.562,11.27,6.9l2.529.735h88.684l2.529-.735a25.454,25.454,0,0,0,12.454-7.735,27.385,27.385,0,0,0,6.051-10.548l.736-2.4.1-32.061.1-32.029H121.949c-17.161,0-19.69.064-19.69.479a7.956,7.956,0,0,0,1.153,2.238,32.408,32.408,0,0,1,1.6,31.773A33.138,33.138,0,0,1,78.664-6.571C69.315-5.484,58.494-9.512,51.77-16.608a30.683,30.683,0,0,1-6.179-9.238c-2.337-4.827-3.009-7.959-3.009-13.649a26.187,26.187,0,0,1,.7-7.48,34.347,34.347,0,0,1,4-9.557,9.464,9.464,0,0,0,1.185-2.3c0-.416-2.5-.479-19.53-.479H9.381Z" transform="translate(111.651 223.333)"/></svg>